<?xml version="1.0" encoding="utf-8"?>
<!-- Generator: Adobe Illustrator 24.1.1, SVG Export Plug-In . SVG Version: 6.00 Build 0)  -->
<svg version="1.1" id="Layer_1" xmlns="http://www.w3.org/2000/svg" xmlns:xlink="http://www.w3.org/1999/xlink" x="0px" y="0px"
	 viewBox="0 0 512 512" style="enable-background:new 0 0 512 512;" xml:space="preserve">
<g>
	<path d="M0,0v512h512V0H0z M273.8,93.8c49.1,3.9,77.7,35.4,81.1,75.6c2.6,20.7,1.9,36.1-1.1,47.4c28,0.9,60.8,13.4,62.9,58.6v44.5
		c-2.9,38.9-16.9,86.9-88.4,97.1l-119.8,0.4c-72.6,1.3-112.6-30.4-113-98.1l0.9-150.2c3.1-43.7,38.5-69.3,79.8-75L273.8,93.8
		L273.8,93.8z M192.2,154.5c-41.8,6.8-43.9,54.2,0,60h79.4c41.8-6.8,43.9-54.2,0-60H192.2z M174.2,285.5c-43.1,6.6-43.7,60.4,1.5,66
		l145.8,0.5c42.7-6.6,42.6-60.3-1.5-66L174.2,285.5L174.2,285.5z"/>
</g>
</svg>
